<svg xmlns:mydata="http://www.w3.org/2000/svg" mydata:contrastcolor="ffffff" mydata:template="Default" mydata:presentation="2.5" mydata:layouttype="undefined" mydata:specialfontid="undefined" mydata:id1="304" mydata:id2="118" mydata:companyname="ARGS" mydata:companytagline="shop your mind" version="1.1" xmlns="http://www.w3.org/2000/svg" xmlns:xlink="http://www.w3.org/1999/xlink" viewBox="0 0 550 470" class="svg-primary-tile"><g fill="none" fill-rule="none" stroke="none" stroke-width="1" stroke-linecap="butt" stroke-linejoin="miter" stroke-miterlimit="10" stroke-dasharray="" stroke-dashoffset="0" font-family="none" font-weight="none" font-size="none" text-anchor="none" style="mix-blend-mode: normal"><g data-paper-data="{&quot;isGlobalGroup&quot;:true,&quot;bounds&quot;:{&quot;x&quot;:93.81374531101841,&quot;y&quot;:170.45441277125101,&quot;width&quot;:362.3725093779631,&quot;height&quot;:129.091174457498}}"><g data-paper-data="{&quot;isSecondaryText&quot;:true}" fill="#101820" fill-rule="nonzero"><path d="M101.69893,293.617c0,0.56018 0.10114,1.03478 0.30343,1.42379c0.20229,0.38901 0.47071,0.70412 0.80526,0.94531c0.33455,0.24119 0.72357,0.42014 1.16704,0.53684c0.44348,0.1167 0.91418,0.17506 1.41212,0.17506c0.32677,0 0.67689,-0.02723 1.05034,-0.08169c0.37345,-0.05446 0.72357,-0.1595 1.05034,-0.3151c0.32677,-0.15561 0.59908,-0.36956 0.81693,-0.64187c0.21785,-0.27231 0.32677,-0.61853 0.32677,-1.03867c0,-0.45126 -0.14394,-0.81693 -0.43181,-1.09702c-0.28787,-0.28009 -0.66521,-0.51739 -1.13203,-0.7119c-0.46682,-0.19451 -0.99588,-0.35789 -1.58718,-0.49016c-0.5913,-0.13226 -1.19038,-0.28398 -1.79725,-0.45515c-0.62242,-0.15561 -1.22929,-0.34622 -1.82059,-0.57185c-0.5913,-0.22563 -1.12036,-0.51739 -1.58718,-0.87528c-0.46682,-0.35789 -0.84416,-0.80137 -1.13203,-1.33043c-0.28787,-0.52906 -0.43181,-1.1826 -0.43181,-1.96063c0,-0.85583 0.18284,-1.59885 0.54851,-2.22905c0.36567,-0.6302 0.84416,-1.15537 1.43546,-1.57551c0.5913,-0.42014 1.26041,-0.73135 2.00732,-0.93364c0.74691,-0.20229 1.49382,-0.30343 2.24072,-0.30343c0.87139,0 1.70777,0.09725 2.50914,0.29176c0.80137,0.19451 1.51327,0.50961 2.13569,0.94531c0.62242,0.4357 1.11647,0.99199 1.48215,1.66887c0.36567,0.67689 0.54851,1.49771 0.54851,2.46246h-3.54781c-0.03112,-0.49794 -0.13616,-0.91029 -0.3151,-1.23707c-0.17895,-0.32677 -0.41625,-0.58352 -0.7119,-0.77025c-0.29565,-0.18673 -0.63798,-0.31899 -1.027,-0.39679c-0.38901,-0.0778 -0.80137,-0.1167 -1.23707,-0.1167c-0.29565,0 -0.5913,0.03112 -0.88695,0.09336c-0.29565,0.06224 -0.56407,0.17117 -0.80526,0.32677c-0.24119,0.15561 -0.43959,0.354 -0.59519,0.59519c-0.15561,0.24119 -0.23341,0.53295 -0.23341,0.87528c0,0.32677 0.06224,0.5913 0.18673,0.79359c0.12448,0.20229 0.36956,0.38512 0.73524,0.54851c0.36567,0.16339 0.87139,0.33455 1.51716,0.5135c0.64576,0.17895 1.48993,0.40069 2.53249,0.66521c0.20229,0.04668 0.46682,0.11281 0.79359,0.1984c0.32677,0.08558 0.673,0.20229 1.03867,0.35011c0.36567,0.14783 0.73135,0.33844 1.09702,0.57185c0.36567,0.23341 0.70023,0.52128 1.00366,0.86361c0.30343,0.34233 0.54851,0.7508 0.73524,1.2254c0.18673,0.4746 0.28009,1.02311 0.28009,1.64553c0,0.76247 -0.14783,1.47048 -0.44348,2.12402c-0.29565,0.65354 -0.73524,1.21762 -1.31876,1.69221c-0.58352,0.4746 -1.30709,0.84805 -2.1707,1.12036c-0.86361,0.27231 -1.86338,0.40847 -2.9993,0.40847c-0.91807,0 -1.80892,-0.1167 -2.67253,-0.35011c-0.86361,-0.23341 -1.62219,-0.5913 -2.27574,-1.07368c-0.65354,-0.48238 -1.17871,-1.09702 -1.57551,-1.84393c-0.39679,-0.74691 -0.58741,-1.63386 -0.57185,-2.66086z" data-paper-data="{&quot;glyphName&quot;:&quot;S&quot;,&quot;glyphIndex&quot;:0,&quot;firstGlyphOfWord&quot;:true,&quot;word&quot;:1}"></path><path d="M136.23744,292.00648h-7.72583v7.09563h-3.57115v-16.71207h3.57115v6.04529h7.72583v-5.99861h3.5945v16.66539h-3.5945z" data-paper-data="{&quot;glyphName&quot;:&quot;H&quot;,&quot;glyphIndex&quot;:1,&quot;word&quot;:1}"></path><path d="M169.91265,290.74608c0,1.19817 -0.22952,2.31853 -0.68856,3.36109c-0.45904,1.04256 -1.07757,1.95285 -1.8556,2.73088c-0.77803,0.77803 -1.69221,1.39267 -2.74255,1.84393c-1.05034,0.45126 -2.16681,0.67689 -3.34942,0.67689c-1.19817,0 -2.31853,-0.22563 -3.36109,-0.67689c-1.04256,-0.45126 -1.95285,-1.0659 -2.73088,-1.84393c-0.77803,-0.77803 -1.39267,-1.68832 -1.84393,-2.73088c-0.45126,-1.04256 -0.67689,-2.16292 -0.67689,-3.36109c0,-1.19817 0.22563,-2.32242 0.67689,-3.37276c0.45126,-1.05034 1.0659,-1.96452 1.84393,-2.74255c0.77803,-0.77803 1.68832,-1.39267 2.73088,-1.84393c1.04256,-0.45126 2.16292,-0.67689 3.36109,-0.67689c1.1826,0 2.29908,0.22563 3.34942,0.67689c1.05034,0.45126 1.96452,1.0659 2.74255,1.84393c0.77803,0.77803 1.39656,1.69221 1.8556,2.74255c0.45904,1.05034 0.68856,2.17459 0.68856,3.37276zM161.27652,285.63442c-0.70023,0 -1.35766,0.13616 -1.9723,0.40847c-0.61464,0.27231 -1.15148,0.64187 -1.61052,1.10869c-0.45904,0.46682 -0.82471,1.00755 -1.09702,1.62219c-0.27231,0.61464 -0.40847,1.27208 -0.40847,1.9723c0,0.70023 0.13616,1.35766 0.40847,1.9723c0.27231,0.61464 0.63798,1.15148 1.09702,1.61052c0.45904,0.45904 0.99588,0.82471 1.61052,1.09702c0.61464,0.27231 1.27208,0.40847 1.9723,0.40847c0.70023,0 1.35377,-0.13616 1.96063,-0.40847c0.60686,-0.27231 1.13981,-0.63798 1.59885,-1.09702c0.45904,-0.45904 0.82082,-0.99588 1.08535,-1.61052c0.26453,-0.61464 0.39679,-1.27208 0.39679,-1.9723c0,-0.70023 -0.13226,-1.35766 -0.39679,-1.9723c-0.26453,-0.61464 -0.62631,-1.15537 -1.08535,-1.62219c-0.45904,-0.46682 -0.99199,-0.83638 -1.59885,-1.10869c-0.60686,-0.27231 -1.26041,-0.40847 -1.96063,-0.40847z" data-paper-data="{&quot;glyphName&quot;:&quot;O&quot;,&quot;glyphIndex&quot;:2,&quot;word&quot;:1}"></path><path d="M183.23453,282.48341h7.51576c1.04256,0 1.92951,0.15172 2.66086,0.45515c0.73135,0.30343 1.32654,0.70412 1.78558,1.20206c0.45904,0.49794 0.79359,1.06979 1.00366,1.71555c0.21007,0.64576 0.3151,1.3032 0.3151,1.9723c0,0.68467 -0.10503,1.34599 -0.3151,1.98397c-0.21007,0.63798 -0.54462,1.20595 -1.00366,1.70388c-0.45904,0.49794 -1.05423,0.89862 -1.78558,1.20206c-0.73135,0.30343 -1.6183,0.45515 -2.66086,0.45515h-3.85124v5.97526h-3.66452zM186.89905,290.32594h2.84759c0.42014,0 0.82471,-0.03112 1.21373,-0.09336c0.38901,-0.06224 0.73135,-0.18284 1.027,-0.36178c0.29565,-0.17895 0.53295,-0.43181 0.7119,-0.75858c0.17895,-0.32677 0.26842,-0.75469 0.26842,-1.28375c0,-0.52906 -0.08947,-0.95698 -0.26842,-1.28375c-0.17895,-0.32677 -0.41625,-0.57963 -0.7119,-0.75858c-0.29565,-0.17895 -0.63798,-0.29954 -1.027,-0.36178c-0.38901,-0.06224 -0.79359,-0.09336 -1.21373,-0.09336h-2.84759z" data-paper-data="{&quot;glyphName&quot;:&quot;P&quot;,&quot;glyphIndex&quot;:3,&quot;lastGlyphOfWord&quot;:true,&quot;word&quot;:1}"></path><path d="M229.04354,292.66003l-6.13865,-10.17662h4.13134l3.89793,6.58213l3.87459,-6.58213h4.08465l-6.18533,10.26999v6.3954h-3.66452z" data-paper-data="{&quot;glyphName&quot;:&quot;Y&quot;,&quot;glyphIndex&quot;:4,&quot;firstGlyphOfWord&quot;:true,&quot;word&quot;:2}"></path><path d="M267.42,290.74608c0,1.19817 -0.22952,2.31853 -0.68856,3.36109c-0.45904,1.04256 -1.07757,1.95285 -1.8556,2.73088c-0.77803,0.77803 -1.69221,1.39267 -2.74255,1.84393c-1.05034,0.45126 -2.16681,0.67689 -3.34942,0.67689c-1.19817,0 -2.31853,-0.22563 -3.36109,-0.67689c-1.04256,-0.45126 -1.95285,-1.0659 -2.73088,-1.84393c-0.77803,-0.77803 -1.39267,-1.68832 -1.84393,-2.73088c-0.45126,-1.04256 -0.67689,-2.16292 -0.67689,-3.36109c0,-1.19817 0.22563,-2.32242 0.67689,-3.37276c0.45126,-1.05034 1.0659,-1.96452 1.84393,-2.74255c0.77803,-0.77803 1.68832,-1.39267 2.73088,-1.84393c1.04256,-0.45126 2.16292,-0.67689 3.36109,-0.67689c1.1826,0 2.29908,0.22563 3.34942,0.67689c1.05034,0.45126 1.96452,1.0659 2.74255,1.84393c0.77803,0.77803 1.39656,1.69221 1.8556,2.74255c0.45904,1.05034 0.68856,2.17459 0.68856,3.37276zM258.78388,285.63442c-0.70023,0 -1.35766,0.13616 -1.9723,0.40847c-0.61464,0.27231 -1.15148,0.64187 -1.61052,1.10869c-0.45904,0.46682 -0.82471,1.00755 -1.09702,1.62219c-0.27231,0.61464 -0.40847,1.27208 -0.40847,1.9723c0,0.70023 0.13616,1.35766 0.40847,1.9723c0.27231,0.61464 0.63798,1.15148 1.09702,1.61052c0.45904,0.45904 0.99588,0.82471 1.61052,1.09702c0.61464,0.27231 1.27208,0.40847 1.9723,0.40847c0.70023,0 1.35377,-0.13616 1.96063,-0.40847c0.60686,-0.27231 1.13981,-0.63798 1.59885,-1.09702c0.45904,-0.45904 0.82082,-0.99588 1.08535,-1.61052c0.26453,-0.61464 0.39679,-1.27208 0.39679,-1.9723c0,-0.70023 -0.13226,-1.35766 -0.39679,-1.9723c-0.26453,-0.61464 -0.62631,-1.15537 -1.08535,-1.62219c-0.45904,-0.46682 -0.99199,-0.83638 -1.59885,-1.10869c-0.60686,-0.27231 -1.26041,-0.40847 -1.96063,-0.40847z" data-paper-data="{&quot;glyphName&quot;:&quot;O&quot;,&quot;glyphIndex&quot;:5,&quot;word&quot;:2}"></path><path d="M294.99996,292.84676c0,2.25628 -0.6302,3.93683 -1.89061,5.04163c-1.26041,1.1048 -3.00319,1.6572 -5.22836,1.6572c-2.25628,0 -4.00296,-0.54851 -5.24003,-1.64553c-1.23707,-1.09702 -1.8556,-2.78145 -1.8556,-5.0533v-10.36335h3.66452v10.36335c0,0.45126 0.0389,0.89473 0.1167,1.33043c0.0778,0.4357 0.24119,0.82471 0.49016,1.16704c0.24897,0.34233 0.59519,0.61464 1.03867,0.81693c0.44348,0.20229 1.03867,0.30343 1.78558,0.30343c1.30709,0 2.2096,-0.29176 2.70754,-0.87528c0.49794,-0.58352 0.74691,-1.49771 0.74691,-2.74255v-10.36335h3.66452z" data-paper-data="{&quot;glyphName&quot;:&quot;U&quot;,&quot;glyphIndex&quot;:6,&quot;word&quot;:2}"></path><path d="M318.67512,292.9868h0.14005l4.31806,6.18533h-4.13134l-4.20136,-5.99861h-1.79725v5.99861h-3.68786v-16.68873h7.51576c1.04256,0 1.9334,0.15172 2.67253,0.45515c0.73913,0.30343 1.3421,0.70412 1.80892,1.20206c0.46682,0.49794 0.80526,1.06979 1.01533,1.71555c0.21007,0.64576 0.3151,1.3032 0.3151,1.9723c0,0.56018 -0.0778,1.11647 -0.23341,1.66887c-0.15561,0.5524 -0.3929,1.06201 -0.7119,1.52883c-0.31899,0.46682 -0.72746,0.87139 -1.2254,1.21373c-0.49794,0.34233 -1.09702,0.5913 -1.79725,0.74691zM315.85087,285.33099h-2.84759v5.01829h2.84759c0.4357,0 0.84805,-0.03112 1.23707,-0.09336c0.38901,-0.06224 0.72746,-0.18673 1.01533,-0.37345c0.28787,-0.18673 0.51739,-0.44348 0.68856,-0.77025c0.17117,-0.32677 0.25675,-0.75469 0.25675,-1.28375c0,-0.54462 -0.08558,-0.98032 -0.25675,-1.30709c-0.17117,-0.32677 -0.40069,-0.57963 -0.68856,-0.75858c-0.28787,-0.17895 -0.62631,-0.29565 -1.01533,-0.35011c-0.38901,-0.05446 -0.80137,-0.08169 -1.23707,-0.08169z" data-paper-data="{&quot;glyphName&quot;:&quot;R&quot;,&quot;glyphIndex&quot;:7,&quot;lastGlyphOfWord&quot;:true,&quot;word&quot;:2}"></path><path d="M353.58859,282.48341h4.76154l3.80456,11.55373l3.8279,-11.55373h4.83156v16.66539h-3.10434v-11.81048h-0.04668l-4.08465,11.81048h-2.82425l-4.08465,-11.69378h-0.04668v11.69378h-3.03431z" data-paper-data="{&quot;glyphName&quot;:&quot;M&quot;,&quot;glyphIndex&quot;:8,&quot;firstGlyphOfWord&quot;:true,&quot;word&quot;:3}"></path><path d="M384.61838,282.48341h3.66452v16.66539h-3.66452z" data-paper-data="{&quot;glyphName&quot;:&quot;I&quot;,&quot;glyphIndex&quot;:9,&quot;word&quot;:3}"></path><path d="M403.78702,286.96485v12.20728h-2.89427v-16.73541h2.89427h1.30709l7.44574,10.41003v-10.41003h3.10434v16.73541h-3.10434z" data-paper-data="{&quot;glyphName&quot;:&quot;N&quot;,&quot;glyphIndex&quot;:10,&quot;word&quot;:3}"></path><path d="M429.80976,282.48341h7.18899c1.07368,0 2.07345,0.17117 2.9993,0.5135c0.92585,0.34233 1.72722,0.85583 2.40411,1.5405c0.67689,0.68467 1.20595,1.5405 1.58718,2.5675c0.38123,1.027 0.57185,2.23294 0.57185,3.61784c0,1.21373 -0.15561,2.33409 -0.46682,3.36109c-0.31121,1.027 -0.78192,1.91395 -1.41212,2.66086c-0.6302,0.74691 -1.41601,1.33432 -2.35743,1.76224c-0.94142,0.42792 -2.05011,0.64187 -3.32607,0.64187h-7.18899zM433.47428,296.0678h3.26772c0.52906,0 1.04256,-0.08558 1.5405,-0.25675c0.49794,-0.17117 0.94142,-0.45515 1.33043,-0.85194c0.38901,-0.39679 0.70023,-0.91418 0.93364,-1.55217c0.23341,-0.63798 0.35011,-1.41601 0.35011,-2.33409c0,-0.84027 -0.08169,-1.59885 -0.24508,-2.27574c-0.16339,-0.67689 -0.43181,-1.25652 -0.80526,-1.7389c-0.37345,-0.48238 -0.8675,-0.85194 -1.48215,-1.10869c-0.61464,-0.25675 -1.37322,-0.38512 -2.27574,-0.38512h-2.61418z" data-paper-data="{&quot;glyphName&quot;:&quot;D&quot;,&quot;glyphIndex&quot;:11,&quot;lastGlyphOfWord&quot;:true,&quot;word&quot;:3}"></path></g><g data-paper-data="{&quot;isPrimaryText&quot;:true}"><path d="M163.7908,256.98015c-2.7826,-0.39751 -5.25603,-1.50172 -7.37611,-3.31262c-0.8392,-0.75086 -1.72256,-1.76673 -2.6501,-3.04761c-1.28088,-1.8109 -2.29675,-3.13595 -2.95928,-3.97515c-7.68529,-9.01034 -16.78396,-14.84056 -27.25185,-17.49065c-4.90268,-1.19254 -9.31952,-1.41339 -13.29466,-0.61836c-4.19599,0.8392 -7.55278,2.69427 -9.98204,5.65354c7.42028,-15.1939 11.5721,-23.67422 12.45547,-25.39678c2.51759,-4.90268 6.84609,-7.46445 12.94132,-7.72946c1.94341,-0.04417 4.28433,0.08834 7.02276,0.48585c3.4893,0.53002 5.25603,0.79503 5.34437,0.79503c4.77018,0.30918 8.65699,-1.10421 11.7046,-4.24016c3.04761,-3.13595 4.37266,-7.06693 3.88681,-11.74877c16.1656,32.55205 24.55759,49.55685 25.17594,51.01441c1.45755,3.44513 1.50172,6.93443 0.22084,10.42372c-1.28088,3.53347 -3.6218,6.1394 -7.02276,7.81779c-2.60593,1.28088 -5.34437,1.76673 -8.21531,1.36922zM154.95714,180.43645c-1.54589,-3.04761 -3.75431,-5.47687 -6.66942,-7.28777c-2.87094,-1.8109 -6.05106,-2.69427 -9.54036,-2.69427c-3.44513,0 -6.62525,0.88337 -9.49619,2.69427c-2.87094,1.8109 -5.07936,4.24016 -6.62525,7.28777l-0.04417,0.1325c-17.53482,35.24632 -26.6335,53.66451 -27.34019,55.29874c-1.8109,4.37266 -1.89924,8.83366 -0.26501,13.29466c1.6784,4.461 4.63767,7.72946 8.87783,9.84954c4.10765,2.07591 8.34781,2.47343 12.76464,1.28088c4.41683,-1.19254 7.86196,-3.71014 10.37955,-7.55278c2.7826,-4.24016 6.71358,-6.36024 11.79294,-6.36024c5.07936,0 9.01034,2.12008 11.79294,6.36024c3.57763,5.4327 8.61282,8.17114 15.10556,8.17114c6.44857,0 11.43959,-2.69427 15.01723,-8.0828c3.57763,-5.38853 4.10765,-11.04208 1.59006,-16.96063c-0.70669,-1.6784 -9.80537,-20.09659 -27.29602,-55.29874z" data-paper-data="{&quot;glyphName&quot;:&quot;A&quot;,&quot;glyphIndex&quot;:0,&quot;firstGlyphOfWord&quot;:true,&quot;word&quot;:1}" fill="#ef426f" fill-rule="nonzero"></path><path d="M334.81053,257.20099c-9.71703,-0.08834 -17.97651,-2.73844 -24.8226,-7.9503c1.54589,1.10421 3.75431,2.03174 6.62525,2.69427c3.44513,0.75086 6.66942,0.8392 9.62869,0.22084c8.30364,-1.76673 12.45547,-8.48032 12.45547,-20.14075c0,-3.84264 1.36922,-7.1111 4.06349,-9.84954c2.69427,-2.69427 5.91855,-4.06349 9.7612,-4.06349c3.71014,0 6.89026,1.28088 9.58453,3.88681c2.6501,2.60593 4.06349,5.74188 4.19599,9.45202l0.04417,11.17458c0,4.01932 -1.41339,7.46445 -4.24016,10.33539c-2.82677,2.82677 -6.22773,4.24016 -10.24705,4.24016zM370.05685,231.31836c-0.22084,-4.72601 -1.98757,-8.74533 -5.38853,-12.01378c-3.40096,-3.31262 -7.42028,-4.94685 -12.14629,-4.94685c-3.57763,0 -6.89026,1.01587 -9.84954,3.09178c-2.95928,1.98757 -5.07936,4.63767 -6.40441,7.9503c-1.45755,0 -2.16425,0 -2.16425,0c-2.60593,-0.04417 -4.81435,-0.9717 -6.66942,-2.87094c-1.85507,-1.89924 -2.7826,-4.19599 -2.7826,-6.80192c0,-2.87094 1.01587,-5.21186 3.09178,-7.06693c1.89924,-1.72256 4.10765,-2.60593 6.58108,-2.60593c1.36922,0 3.40096,0.70669 6.05106,2.16425c2.60593,2.47343 5.65354,3.97515 9.14284,4.54934c3.31262,0.53002 6.58108,0.1325 9.71703,-1.19254c3.18012,-1.32505 5.74188,-3.35679 7.68529,-6.09523c2.07591,-2.95928 3.13595,-6.36024 3.13595,-10.20288c0,-7.02276 -3.93098,-13.02965 -11.79294,-17.97651c-7.2436,-4.54934 -15.23807,-6.80192 -23.93923,-6.80192c-12.5438,0 -23.18837,4.461 -31.97786,13.33883c-8.70116,8.7895 -13.02965,19.43406 -13.02965,31.88953c0,12.5438 4.41683,23.23254 13.29466,32.11037c8.7895,8.74533 19.16905,13.11799 31.227,13.11799h18.02067c4.99102,0 9.27535,-1.8109 12.85298,-5.38853c3.57763,-3.57763 5.34437,-7.86196 5.34437,-12.94132v-11.17458z" data-paper-data="{&quot;glyphName&quot;:&quot;G&quot;,&quot;glyphIndex&quot;:2,&quot;word&quot;:1}" fill="#ef426f" fill-rule="nonzero"></path><path d="M439.22444,251.59161c0.79503,-1.63423 1.19254,-3.44513 1.14838,-5.4327c-0.08834,-4.72601 -2.12008,-7.9503 -6.09523,-9.58453c-22.305,-9.14284 -33.96544,-14.04553 -34.98131,-14.66388c-2.25258,-1.28088 -4.24016,-2.6501 -5.91855,-4.10765c-4.15182,-3.4893 -6.93443,-7.68529 -8.30364,-12.58797c-1.36922,-4.85852 -1.19254,-9.71703 0.57419,-14.57555c1.72256,-4.72601 4.54934,-8.61282 8.56865,-11.5721c4.01932,-2.95928 8.39198,-4.50517 13.20633,-4.59351c-2.16425,0.30918 -3.97515,1.32505 -5.4327,2.95928c-1.41339,1.54589 -2.29675,3.40096 -2.60593,5.56521c-0.30918,2.25258 -0.04417,4.37266 0.88337,6.36024c1.06004,2.25258 2.73844,4.01932 5.03519,5.34437c2.12008,1.19254 11.74877,4.94685 28.84191,11.21875c8.0828,3.4893 13.47134,8.52449 16.20977,15.10556c2.34092,5.52104 2.56176,11.35126 0.70669,17.49065c-2.42926,7.9503 -7.46445,13.42717 -15.10556,16.47478c1.36922,-0.57419 2.42926,-1.72256 3.26846,-3.40096zM448.19061,198.32462c1.89924,-2.95928 2.87094,-6.22773 2.87094,-9.80537c0.04417,-4.90268 -1.6784,-9.09867 -5.07936,-12.58797c-3.4893,-3.6218 -7.86196,-5.4327 -13.11799,-5.4327c-12.01378,-0.04417 -20.36159,-0.04417 -24.99927,0c-5.74188,0.04417 -10.99791,1.76673 -15.72392,5.21186c-4.77018,3.44513 -8.17114,7.9503 -10.20288,13.55967c-2.03174,5.69771 -2.25258,11.35126 -0.66252,16.96063c1.59006,5.65354 4.77018,10.51206 9.58453,14.61971c1.6784,1.45755 3.57763,2.7826 5.74188,4.06349c-4.90268,0.08834 -9.05451,1.89924 -12.45547,5.38853c-3.44513,3.4893 -5.16769,7.72946 -5.16769,12.63214c0,4.99102 1.76673,9.23118 5.25603,12.72048c3.4893,3.53347 7.68529,5.3002 12.63214,5.3002h28.00271c7.15527,0 13.42717,-1.89924 18.8157,-5.69771c3.84264,-2.69427 6.84609,-6.22773 9.09867,-10.6004c2.25258,-4.37266 3.35679,-8.922 3.40096,-13.73635c0.04417,-5.07936 -1.14838,-9.80537 -3.57763,-14.17803c-2.69427,-4.81435 -6.66942,-8.74533 -11.92545,-11.88128c3.13595,-1.45755 5.60938,-3.66597 7.50861,-6.53691z" data-paper-data="{&quot;glyphName&quot;:&quot;S&quot;,&quot;glyphIndex&quot;:3,&quot;lastGlyphOfWord&quot;:true,&quot;word&quot;:1}" fill="#ef426f" fill-rule="nonzero"></path><g data-paper-data="{&quot;isIcon&quot;:&quot;true&quot;,&quot;iconType&quot;:&quot;icon&quot;,&quot;rawIconId&quot;:&quot;7d4fc6d6-37cb-4c2b-ae27-fea897a51a90&quot;,&quot;selectedEffects&quot;:{&quot;container&quot;:&quot;&quot;,&quot;transformation&quot;:&quot;&quot;,&quot;pattern&quot;:&quot;&quot;},&quot;isDetailed&quot;:false,&quot;fillRule&quot;:&quot;nonzero&quot;,&quot;bounds&quot;:{&quot;x&quot;:193.87161509211853,&quot;y&quot;:170.49864164613942,&quot;width&quot;:86.65376981576293,&quot;height&quot;:90.45671670772126},&quot;iconStyle&quot;:&quot;icon-in-text&quot;,&quot;suitableAsStandaloneIcon&quot;:true}" fill-rule="evenodd"><path d="M276.878,219.92717c2.43159,-4.82013 3.64739,-9.95106 3.64739,-15.39279c0,-9.37088 -3.29321,-17.39422 -9.87964,-24.07c-6.64382,-6.64382 -14.60943,-9.96574 -23.89683,-9.96574h-36.34275c-0.00978,0 -0.01957,0 -0.02935,0c-4.55858,0.13632 -8.45741,1.89316 -11.69648,5.27051c-3.20581,3.34278 -4.80872,7.31434 -4.80872,11.91466l0.12915,56.782c0,0.01239 0.00033,0.02479 0.00098,0.03718c0.18328,4.5364 1.91109,8.41762 5.18344,11.64365c3.34409,3.20581 7.30064,4.80872 11.86966,4.80872h45.33011c4.73599,0 8.78386,-1.67987 12.1436,-5.03961c3.33104,-3.3317 4.99657,-7.39391 4.99657,-12.18665c0,-4.82209 -1.66552,-8.89865 -4.99657,-12.2297c-0.04827,-0.04892 -0.10142,-0.09197 -0.15948,-0.12915c-0.04174,-0.03914 -0.1011,-0.09621 -0.17806,-0.17122c-0.05088,-0.04892 -0.1236,-0.12067 -0.21818,-0.21524c3.74,-3.01927 6.7084,-6.70481 8.90518,-11.05663zM267.03652,231.608c-0.11871,0.15784 -0.17806,0.35222 -0.17806,0.58311c0,-0.10306 0.01598,-0.2035 0.04794,-0.30134c0.03131,-0.09784 0.07697,-0.1885 0.13697,-0.27199zM269.26232,181.8478c6.20421,6.289 9.30631,13.85119 9.30631,22.68658c0,5.13126 -1.146,9.96867 -3.43801,14.51225c-2.2307,4.41835 -5.30508,8.10747 -9.22315,11.06739c-0.10371,0.07827 -0.18817,0.1735 -0.2534,0.28569c-0.06588,0.11153 -0.10762,0.23155 -0.12523,0.36004c-0.01826,0.12849 -0.01109,0.25568 0.02152,0.38157c0.03261,0.12523 0.08805,0.2397 0.16632,0.34341c0.02805,0.03718 0.0587,0.07207 0.09197,0.10469l0.00196,0.00196c0.52506,0.52506 0.86293,0.8613 1.0136,1.00871c0.12393,0.12067 0.21753,0.20905 0.28079,0.26514c0.04501,0.03979 0.0861,0.0737 0.12328,0.10175c2.89338,2.93382 4.34008,6.5212 4.34008,10.76213c0,4.25202 -1.47441,7.8531 -4.42324,10.80323c-2.97752,2.97752 -6.56425,4.46629 -10.76018,4.46629h-45.33011c-4.04526,0 -7.55045,-1.42158 -10.51558,-4.26474c-2.88751,-2.84707 -4.41476,-6.27726 -4.58173,-10.29056l-0.12915,-56.76341c0,-4.0733 1.42158,-7.5922 4.26474,-10.55668c2.86599,-2.98861 6.30857,-4.54456 10.32774,-4.66783h36.32807c8.74733,0 16.2518,3.1308 22.51341,9.39241z" fill="#ef426f"></path><g data-paper-data="{&quot;isPathIcon&quot;:true}"><path d="M252.40494,183.7996c0.694,-0.087 1.47599,-0.173 2.16999,-0.173c10.76295,0 19.52991,8.76596 19.52991,19.61591c0,7.11797 -4.25298,14.40893 -9.37396,20.57191v-7.81196c1.56199,-2.34399 2.77699,-4.68798 3.64498,-7.03097h-11.28395v22.5679c-1.64899,1.47499 -3.21099,2.77699 -4.68698,3.90598zM269.41787,203.24251c0,-7.37797 -5.29498,-13.45394 -12.32594,-14.66893v15.62393h12.23894c0.087,-0.347 0.087,-0.694 0.087,-0.955z" fill="#ef426f"></path><path d="M209.90914,223.81442c-5.12098,-6.16297 -9.37396,-13.45394 -9.37396,-20.57191c0,-10.84995 8.76696,-19.61591 19.52991,-19.61591c0.781,0 1.47599,0.086 2.16999,0.173v51.64576c-1.38899,-1.12899 -3.03799,-2.43099 -4.68698,-3.90598v-22.5679h-11.28395c0.868,2.34299 2.08299,4.68698 3.64498,7.03097zM205.22216,203.24251c0,0.261 0,0.608 0.087,0.955h12.23894v-15.62393c-7.03097,1.21499 -12.32594,7.29097 -12.32594,14.66893z" fill="#ef426f"></path><path d="M249.38796,240.79434c-1.65799,1.19799 -3.31598,2.48799 -5.06698,3.68498v-27.35987h-14.09393v27.35987c-1.75099,-1.19699 -3.40898,-2.48699 -4.97498,-3.68498v-56.00974c4.88198,1.10499 9.11996,4.14498 12.06794,7.92196c2.94799,-3.77698 7.18597,-6.81697 11.97594,-7.92196v4.23798h0.092zM233.35903,195.74754c-0.921,-1.19799 -1.93499,-2.21099 -3.13199,-3.13299v19.52991h14.09393v-19.52991c-1.10499,0.922 -2.21099,1.93499 -3.13199,3.13299l-3.86898,5.06598z" fill="#101820"></path></g></g></g></g></g></svg>